<?xml version="1.0" encoding="UTF-8" standalone="no"?>
<!-- Created with Inkscape (http://www.inkscape.org/) -->

<svg
   width="210mm"
   height="297mm"
   viewBox="0 0 210 297"
   version="1.1"
   id="svg1"
   inkscape:version="1.4.2 (f4327f4, 2025-05-13)"
   sodipodi:docname="tegning.svg"
   xmlns:inkscape="http://www.inkscape.org/namespaces/inkscape"
   xmlns:sodipodi="http://sodipodi.sourceforge.net/DTD/sodipodi-0.dtd"
   xmlns="http://www.w3.org/2000/svg"
   xmlns:svg="http://www.w3.org/2000/svg">
  <sodipodi:namedview
     id="namedview1"
     pagecolor="#ffffff"
     bordercolor="#000000"
     borderopacity="0.25"
     inkscape:showpageshadow="2"
     inkscape:pageopacity="0.0"
     inkscape:pagecheckerboard="0"
     inkscape:deskcolor="#d1d1d1"
     inkscape:document-units="mm"
     inkscape:zoom="0.71891835"
     inkscape:cx="431.89884"
     inkscape:cy="431.89884"
     inkscape:window-width="1920"
     inkscape:window-height="1009"
     inkscape:window-x="-8"
     inkscape:window-y="-8"
     inkscape:window-maximized="1"
     inkscape:current-layer="layer1" />
  <defs
     id="defs1" />
  <g
     inkscape:label="Lag 1"
     inkscape:groupmode="layer"
     id="layer1">
    <g
       id="g7"
       transform="translate(21.345725,-39.011153)">
      <path
         id="rect1"
         style="fill:#ff00ff;stroke-width:0.250439"
         d="m 29.606728,58.516732 c 55.841611,105.415038 80.733092,14.24762 117.072792,0 0.0847,-0.0332 0.25533,0.16802 0.16435,0.16435 -77.648952,-3.13595 -229.268357,-15.19168 0,85.790258 0.0833,0.0367 -0.0733,0.16435 -0.16435,0.16435 -39.02427,0 84.60212,-99.689118 -117.072792,0 -0.08162,0.0404 -0.164349,-0.0733 -0.164349,-0.16435 V 58.681082 c 0,-0.091 0.121728,-0.24481 0.164349,-0.16435 z"
         sodipodi:nodetypes="sssssssss" />
      <path
         style="fill:#ff00ff;stroke-width:0.264999"
         d="m 53.364312,77.654273 c 0.394099,1.569453 0.397973,3.206647 0.73606,4.784387 0.187129,0.873275 0.542319,1.704377 0.736058,2.576208 0.469423,2.112407 0,6.877145 0,9.200745 0,1.231368 -0.300736,2.845382 0,4.048326 0.444299,1.777191 0.174895,-0.01823 0.73606,1.10409 0.430062,0.860121 0,3.326911 0,4.416361"
         id="path4" />
      <text
         xml:space="preserve"
         style="font-size:14.1111px;text-align:start;writing-mode:lr-tb;direction:ltr;text-anchor:start;fill:#000000;stroke-width:0.264999"
         x="54.100365"
         y="72.501854"
         id="text6"><tspan
           sodipodi:role="line"
           id="tspan6"
           style="stroke-width:0.265"
           x="54.100365"
           y="72.501854">Per Sin </tspan><tspan
           sodipodi:role="line"
           style="stroke-width:0.265"
           x="54.100365"
           y="90.140732"
           id="tspan7">  PÅL</tspan></text>
    </g>
  </g>
</svg>
